<?xml version="1.0" encoding="UTF-8"?>
<svg xmlns="http://www.w3.org/2000/svg" xmlns:xlink="http://www.w3.org/1999/xlink" width="360pt" height="360pt" viewBox="0 0 360 360" version="1.1">
<defs>
<g>
<symbol overflow="visible" id="glyph0-0">
<path style="stroke:none;" d="M 0.25 0 L 3.703125 0 L 3.703125 -6.546875 L 0.078125 -6.546875 L 0.078125 0 Z M 0.90625 -0.625 L 0.90625 -5.765625 L 2.859375 -5.765625 L 2.859375 -0.78125 L 0.90625 -0.78125 Z M 0.90625 -0.625 "/>
</symbol>
<symbol overflow="visible" id="glyph0-1">
<path style="stroke:none;" d="M 1.296875 -3.375 L 1.296875 -2.625 L 2.140625 -2.625 C 2.921875 -2.625 3.15625 -2.40625 3.15625 -1.75 L 3.15625 -1.6875 C 3.15625 -1.03125 2.921875 -0.8125 2.140625 -0.8125 C 1.453125 -0.8125 1.25 -1.0625 0.875 -1.625 L 0.109375 -1.03125 C 0.546875 -0.421875 1.171875 0.09375 2.140625 0.09375 C 3.28125 0.09375 4.21875 -0.71875 4.21875 -1.6875 C 4.21875 -2.515625 3.46875 -3.125 3.046875 -3.203125 L 3.046875 -3.015625 C 3.453125 -3.125 4.109375 -3.703125 4.109375 -4.421875 C 4.109375 -5.328125 3.1875 -5.984375 2.234375 -5.984375 C 1.34375 -5.984375 0.734375 -5.46875 0.359375 -4.875 L 1.125 -4.28125 C 1.421875 -4.84375 1.640625 -5.078125 2.21875 -5.078125 C 2.8125 -5.078125 3.046875 -4.9375 3.046875 -4.359375 L 3.046875 -4.296875 C 3.046875 -3.765625 2.84375 -3.515625 2.09375 -3.515625 L 1.296875 -3.515625 Z M 1.296875 -3.375 "/>
</symbol>
<symbol overflow="visible" id="glyph0-2">
<path style="stroke:none;" d="M 3.8125 -0.15625 L 3.8125 -1.09375 L 4.625 -1.09375 L 4.625 -1.953125 L 3.8125 -1.953125 L 3.8125 -5.890625 L 2.53125 -5.890625 L 0.125 -1.84375 L 0.125 -1.09375 L 2.8125 -1.09375 L 2.8125 0 L 3.8125 0 Z M 2.953125 -5.0625 L 2.8125 -5.0625 L 2.8125 -1.953125 L 1.21875 -1.953125 L 3.0625 -5.0625 Z M 2.953125 -5.0625 "/>
</symbol>
<symbol overflow="visible" id="glyph0-3">
<path style="stroke:none;" d="M 3.984375 -5.890625 L 0.8125 -5.890625 L 0.59375 -2.53125 L 1.4375 -2.421875 C 1.71875 -2.734375 1.84375 -2.90625 2.359375 -2.90625 C 3.125 -2.90625 3.34375 -2.625 3.34375 -1.890625 L 3.34375 -1.8125 C 3.34375 -1.078125 3.125 -0.8125 2.359375 -0.8125 C 1.6875 -0.8125 1.53125 -1.0625 1.15625 -1.625 L 0.390625 -1.046875 C 0.828125 -0.421875 1.4375 0.09375 2.359375 0.09375 C 3.53125 0.09375 4.421875 -0.8125 4.421875 -1.90625 C 4.421875 -2.984375 3.53125 -3.78125 2.578125 -3.78125 C 1.984375 -3.78125 1.5625 -3.5 1.34375 -3.171875 L 1.5625 -3.171875 L 1.703125 -4.984375 L 4.15625 -4.984375 L 4.15625 -5.890625 Z M 3.984375 -5.890625 "/>
</symbol>
<symbol overflow="visible" id="glyph0-4">
<path style="stroke:none;" d="M 2.40625 0.09375 C 3.53125 0.09375 4.4375 -0.8125 4.4375 -1.90625 C 4.4375 -2.953125 3.578125 -3.78125 2.609375 -3.78125 C 1.9375 -3.78125 1.40625 -3.390625 1.1875 -3.015625 L 1.421875 -2.90625 C 1.71875 -4.140625 2.3125 -4.75 3.515625 -5.625 L 3.390625 -5.890625 L 2.46875 -5.890625 C 1.5 -5.25 0.359375 -3.859375 0.359375 -2.203125 C 0.359375 -0.875 1.25 0.09375 2.40625 0.09375 Z M 2.40625 -0.796875 C 1.65625 -0.796875 1.40625 -1.0625 1.40625 -1.8125 L 1.40625 -1.875 C 1.40625 -2.625 1.65625 -2.90625 2.40625 -2.90625 C 3.140625 -2.90625 3.390625 -2.625 3.390625 -1.875 L 3.390625 -1.8125 C 3.390625 -1.0625 3.140625 -0.796875 2.40625 -0.796875 Z M 2.40625 -0.796875 "/>
</symbol>
<symbol overflow="visible" id="glyph0-5">
<path style="stroke:none;" d="M 4.265625 -0.890625 L 1.75 -0.890625 L 2.953125 -1.984375 C 3.65625 -2.625 4.234375 -3.34375 4.234375 -4.203125 C 4.234375 -5.15625 3.4375 -5.984375 2.34375 -5.984375 C 1.265625 -5.984375 0.578125 -5.171875 0.34375 -4.4375 L 1.265625 -4.078125 C 1.484375 -4.8125 1.625 -5.078125 2.3125 -5.078125 C 3 -5.078125 3.15625 -4.8125 3.15625 -4.1875 L 3.15625 -4.09375 C 3.15625 -3.5625 2.8125 -3.109375 2.296875 -2.625 L 0.421875 -0.890625 L 0.421875 0 L 4.4375 0 L 4.4375 -0.890625 Z M 4.265625 -0.890625 "/>
</symbol>
<symbol overflow="visible" id="glyph1-0">
<path style="stroke:none;" d="M 0.3125 0 L 4.5625 0 L 4.5625 -8.0625 L 0.15625 -8.0625 L 0.15625 0 Z M 1.078125 -0.734375 L 1.078125 -7.203125 L 3.625 -7.203125 L 3.625 -0.875 L 1.078125 -0.875 Z M 1.078125 -0.734375 "/>
</symbol>
<symbol overflow="visible" id="glyph1-1">
<path style="stroke:none;" d="M 0.203125 0 L 1.1875 0 L 2.625 -2.015625 L 2.484375 -2.015625 L 3.828125 0 L 5.125 0 L 3.1875 -2.796875 L 5.09375 -5.4375 L 3.84375 -5.4375 L 2.484375 -3.515625 L 2.625 -3.515625 L 1.3125 -5.4375 L 0 -5.4375 L 1.9375 -2.734375 L -0.078125 0 Z M 0.203125 0 "/>
</symbol>
<symbol overflow="visible" id="glyph2-0">
<path style="stroke:none;" d="M 0 -0.3125 L 0 -4.5625 L -8.0625 -4.5625 L -8.0625 -0.15625 L 0 -0.15625 Z M -0.734375 -1.078125 L -7.203125 -1.078125 L -7.203125 -3.625 L -0.875 -3.625 L -0.875 -1.078125 Z M -0.734375 -1.078125 "/>
</symbol>
<symbol overflow="visible" id="glyph2-1">
<path style="stroke:none;" d="M -1.78125 -2.609375 L -1.078125 -2.375 L -1.078125 -2.5625 L -1.78125 -2.375 L -5.4375 -1.078125 L -5.4375 0.046875 L 0.0625 -1.9375 L 1.03125 -1.59375 L 1.03125 -0.734375 L 2 -0.734375 L 2 -1.3125 C 2 -2.0625 1.6875 -2.4375 1.0625 -2.671875 L -5.4375 -5.03125 L -5.4375 -3.90625 Z M -1.78125 -2.609375 "/>
</symbol>
</g>
<clipPath id="clip1">
  <path d="M 27.59375 4.980469 L 356 4.980469 L 356 329 L 27.59375 329 Z M 27.59375 4.980469 "/>
</clipPath>
<clipPath id="clip2">
  <path d="M 27.59375 319 L 356 319 L 356 320 L 27.59375 320 Z M 27.59375 319 "/>
</clipPath>
<clipPath id="clip3">
  <path d="M 27.59375 240 L 356 240 L 356 241 L 27.59375 241 Z M 27.59375 240 "/>
</clipPath>
<clipPath id="clip4">
  <path d="M 27.59375 160 L 356 160 L 356 162 L 27.59375 162 Z M 27.59375 160 "/>
</clipPath>
<clipPath id="clip5">
  <path d="M 27.59375 81 L 356 81 L 356 82 L 27.59375 82 Z M 27.59375 81 "/>
</clipPath>
<clipPath id="clip6">
  <path d="M 37 4.980469 L 39 4.980469 L 39 329.765625 L 37 329.765625 Z M 37 4.980469 "/>
</clipPath>
<clipPath id="clip7">
  <path d="M 100 4.980469 L 102 4.980469 L 102 329.765625 L 100 329.765625 Z M 100 4.980469 "/>
</clipPath>
<clipPath id="clip8">
  <path d="M 164 4.980469 L 165 4.980469 L 165 329.765625 L 164 329.765625 Z M 164 4.980469 "/>
</clipPath>
<clipPath id="clip9">
  <path d="M 227 4.980469 L 228 4.980469 L 228 329.765625 L 227 329.765625 Z M 227 4.980469 "/>
</clipPath>
<clipPath id="clip10">
  <path d="M 290 4.980469 L 292 4.980469 L 292 329.765625 L 290 329.765625 Z M 290 4.980469 "/>
</clipPath>
<clipPath id="clip11">
  <path d="M 353 4.980469 L 355 4.980469 L 355 329.765625 L 353 329.765625 Z M 353 4.980469 "/>
</clipPath>
<clipPath id="clip12">
  <path d="M 27.59375 279 L 356 279 L 356 281 L 27.59375 281 Z M 27.59375 279 "/>
</clipPath>
<clipPath id="clip13">
  <path d="M 27.59375 200 L 356 200 L 356 202 L 27.59375 202 Z M 27.59375 200 "/>
</clipPath>
<clipPath id="clip14">
  <path d="M 27.59375 120 L 356 120 L 356 122 L 27.59375 122 Z M 27.59375 120 "/>
</clipPath>
<clipPath id="clip15">
  <path d="M 27.59375 41 L 356 41 L 356 43 L 27.59375 43 Z M 27.59375 41 "/>
</clipPath>
<clipPath id="clip16">
  <path d="M 69 4.980469 L 71 4.980469 L 71 329.765625 L 69 329.765625 Z M 69 4.980469 "/>
</clipPath>
<clipPath id="clip17">
  <path d="M 132 4.980469 L 134 4.980469 L 134 329.765625 L 132 329.765625 Z M 132 4.980469 "/>
</clipPath>
<clipPath id="clip18">
  <path d="M 195 4.980469 L 197 4.980469 L 197 329.765625 L 195 329.765625 Z M 195 4.980469 "/>
</clipPath>
<clipPath id="clip19">
  <path d="M 258 4.980469 L 260 4.980469 L 260 329.765625 L 258 329.765625 Z M 258 4.980469 "/>
</clipPath>
<clipPath id="clip20">
  <path d="M 321 4.980469 L 323 4.980469 L 323 329.765625 L 321 329.765625 Z M 321 4.980469 "/>
</clipPath>
<clipPath id="clip21">
  <path d="M 27.59375 4.980469 L 356 4.980469 L 356 329.765625 L 27.59375 329.765625 Z M 27.59375 4.980469 "/>
</clipPath>
</defs>
<g id="surface8">
<rect x="0" y="0" width="360" height="360" style="fill:rgb(100%,100%,100%);fill-opacity:1;stroke:none;"/>
<rect x="0" y="0" width="360" height="360" style="fill:rgb(100%,100%,100%);fill-opacity:1;stroke:none;"/>
<path style="fill:none;stroke-width:0.96998;stroke-linecap:round;stroke-linejoin:round;stroke:rgb(100%,100%,100%);stroke-opacity:1;stroke-miterlimit:10;" d="M 0 360 L 360 360 L 360 0 L 0 0 Z M 0 360 "/>
<g clip-path="url(#clip1)" clip-rule="nonzero">
<path style=" stroke:none;fill-rule:nonzero;fill:rgb(100%,100%,100%);fill-opacity:1;" d="M 27.59375 328.765625 L 355.015625 328.765625 L 355.015625 4.980469 L 27.59375 4.980469 Z M 27.59375 328.765625 "/>
</g>
<g clip-path="url(#clip2)" clip-rule="nonzero">
<path style="fill:none;stroke-width:0.48499;stroke-linecap:butt;stroke-linejoin:round;stroke:rgb(92.156863%,92.156863%,92.156863%);stroke-opacity:1;stroke-miterlimit:10;" d="M 27.59375 319.667969 L 355.019531 319.667969 "/>
</g>
<g clip-path="url(#clip3)" clip-rule="nonzero">
<path style="fill:none;stroke-width:0.48499;stroke-linecap:butt;stroke-linejoin:round;stroke:rgb(92.156863%,92.156863%,92.156863%);stroke-opacity:1;stroke-miterlimit:10;" d="M 27.59375 240.277344 L 355.019531 240.277344 "/>
</g>
<g clip-path="url(#clip4)" clip-rule="nonzero">
<path style="fill:none;stroke-width:0.48499;stroke-linecap:butt;stroke-linejoin:round;stroke:rgb(92.156863%,92.156863%,92.156863%);stroke-opacity:1;stroke-miterlimit:10;" d="M 27.59375 160.886719 L 355.019531 160.886719 "/>
</g>
<g clip-path="url(#clip5)" clip-rule="nonzero">
<path style="fill:none;stroke-width:0.48499;stroke-linecap:butt;stroke-linejoin:round;stroke:rgb(92.156863%,92.156863%,92.156863%);stroke-opacity:1;stroke-miterlimit:10;" d="M 27.59375 81.496094 L 355.019531 81.496094 "/>
</g>
<g clip-path="url(#clip6)" clip-rule="nonzero">
<path style="fill:none;stroke-width:0.48499;stroke-linecap:butt;stroke-linejoin:round;stroke:rgb(92.156863%,92.156863%,92.156863%);stroke-opacity:1;stroke-miterlimit:10;" d="M 38.003906 328.765625 L 38.003906 4.980469 "/>
</g>
<g clip-path="url(#clip7)" clip-rule="nonzero">
<path style="fill:none;stroke-width:0.48499;stroke-linecap:butt;stroke-linejoin:round;stroke:rgb(92.156863%,92.156863%,92.156863%);stroke-opacity:1;stroke-miterlimit:10;" d="M 101.199219 328.765625 L 101.199219 4.980469 "/>
</g>
<g clip-path="url(#clip8)" clip-rule="nonzero">
<path style="fill:none;stroke-width:0.48499;stroke-linecap:butt;stroke-linejoin:round;stroke:rgb(92.156863%,92.156863%,92.156863%);stroke-opacity:1;stroke-miterlimit:10;" d="M 164.398438 328.765625 L 164.398438 4.980469 "/>
</g>
<g clip-path="url(#clip9)" clip-rule="nonzero">
<path style="fill:none;stroke-width:0.48499;stroke-linecap:butt;stroke-linejoin:round;stroke:rgb(92.156863%,92.156863%,92.156863%);stroke-opacity:1;stroke-miterlimit:10;" d="M 227.59375 328.765625 L 227.59375 4.980469 "/>
</g>
<g clip-path="url(#clip10)" clip-rule="nonzero">
<path style="fill:none;stroke-width:0.48499;stroke-linecap:butt;stroke-linejoin:round;stroke:rgb(92.156863%,92.156863%,92.156863%);stroke-opacity:1;stroke-miterlimit:10;" d="M 290.792969 328.765625 L 290.792969 4.980469 "/>
</g>
<g clip-path="url(#clip11)" clip-rule="nonzero">
<path style="fill:none;stroke-width:0.48499;stroke-linecap:butt;stroke-linejoin:round;stroke:rgb(92.156863%,92.156863%,92.156863%);stroke-opacity:1;stroke-miterlimit:10;" d="M 353.988281 328.765625 L 353.988281 4.980469 "/>
</g>
<g clip-path="url(#clip12)" clip-rule="nonzero">
<path style="fill:none;stroke-width:0.96998;stroke-linecap:butt;stroke-linejoin:round;stroke:rgb(92.156863%,92.156863%,92.156863%);stroke-opacity:1;stroke-miterlimit:10;" d="M 27.59375 279.972656 L 355.019531 279.972656 "/>
</g>
<g clip-path="url(#clip13)" clip-rule="nonzero">
<path style="fill:none;stroke-width:0.96998;stroke-linecap:butt;stroke-linejoin:round;stroke:rgb(92.156863%,92.156863%,92.156863%);stroke-opacity:1;stroke-miterlimit:10;" d="M 27.59375 200.582031 L 355.019531 200.582031 "/>
</g>
<g clip-path="url(#clip14)" clip-rule="nonzero">
<path style="fill:none;stroke-width:0.96998;stroke-linecap:butt;stroke-linejoin:round;stroke:rgb(92.156863%,92.156863%,92.156863%);stroke-opacity:1;stroke-miterlimit:10;" d="M 27.59375 121.191406 L 355.019531 121.191406 "/>
</g>
<g clip-path="url(#clip15)" clip-rule="nonzero">
<path style="fill:none;stroke-width:0.96998;stroke-linecap:butt;stroke-linejoin:round;stroke:rgb(92.156863%,92.156863%,92.156863%);stroke-opacity:1;stroke-miterlimit:10;" d="M 27.59375 41.800781 L 355.019531 41.800781 "/>
</g>
<g clip-path="url(#clip16)" clip-rule="nonzero">
<path style="fill:none;stroke-width:0.96998;stroke-linecap:butt;stroke-linejoin:round;stroke:rgb(92.156863%,92.156863%,92.156863%);stroke-opacity:1;stroke-miterlimit:10;" d="M 69.601562 328.765625 L 69.601562 4.980469 "/>
</g>
<g clip-path="url(#clip17)" clip-rule="nonzero">
<path style="fill:none;stroke-width:0.96998;stroke-linecap:butt;stroke-linejoin:round;stroke:rgb(92.156863%,92.156863%,92.156863%);stroke-opacity:1;stroke-miterlimit:10;" d="M 132.800781 328.765625 L 132.800781 4.980469 "/>
</g>
<g clip-path="url(#clip18)" clip-rule="nonzero">
<path style="fill:none;stroke-width:0.96998;stroke-linecap:butt;stroke-linejoin:round;stroke:rgb(92.156863%,92.156863%,92.156863%);stroke-opacity:1;stroke-miterlimit:10;" d="M 195.996094 328.765625 L 195.996094 4.980469 "/>
</g>
<g clip-path="url(#clip19)" clip-rule="nonzero">
<path style="fill:none;stroke-width:0.96998;stroke-linecap:butt;stroke-linejoin:round;stroke:rgb(92.156863%,92.156863%,92.156863%);stroke-opacity:1;stroke-miterlimit:10;" d="M 259.191406 328.765625 L 259.191406 4.980469 "/>
</g>
<g clip-path="url(#clip20)" clip-rule="nonzero">
<path style="fill:none;stroke-width:0.96998;stroke-linecap:butt;stroke-linejoin:round;stroke:rgb(92.156863%,92.156863%,92.156863%);stroke-opacity:1;stroke-miterlimit:10;" d="M 322.390625 328.765625 L 322.390625 4.980469 "/>
</g>
<path style="fill:none;stroke-width:1.066978;stroke-linecap:butt;stroke-linejoin:round;stroke:rgb(0%,0%,0%);stroke-opacity:1;stroke-miterlimit:10;" d="M 42.476562 314.046875 L 43.109375 313.257812 L 43.742188 312.476562 L 44.375 311.703125 L 45.007812 310.933594 L 45.636719 310.175781 L 46.269531 309.425781 L 46.902344 308.683594 L 47.535156 307.949219 L 48.164062 307.222656 L 48.796875 306.503906 L 49.429688 305.792969 L 50.0625 305.089844 L 50.695312 304.398438 L 51.324219 303.710938 L 51.957031 303.03125 L 52.589844 302.359375 L 53.222656 301.695312 L 53.851562 301.039062 L 54.484375 300.390625 L 55.117188 299.75 L 55.75 299.121094 L 56.382812 298.496094 L 57.011719 297.878906 L 57.644531 297.269531 L 58.277344 296.667969 L 58.910156 296.074219 L 59.542969 295.488281 L 60.171875 294.910156 L 60.804688 294.339844 L 61.4375 293.777344 L 62.070312 293.21875 L 62.699219 292.671875 L 63.332031 292.132812 L 63.964844 291.597656 L 64.597656 291.074219 L 65.230469 290.554688 L 65.859375 290.046875 L 66.492188 289.542969 L 67.125 289.046875 L 67.757812 288.558594 L 68.390625 288.078125 L 69.019531 287.601562 L 69.652344 287.136719 L 70.285156 286.675781 L 70.917969 286.226562 L 71.546875 285.78125 L 72.179688 285.34375 L 72.8125 284.910156 L 73.445312 284.488281 L 74.078125 284.070312 L 74.707031 283.660156 L 75.339844 283.257812 L 75.972656 282.863281 L 76.605469 282.472656 L 77.238281 282.089844 L 77.867188 281.714844 L 78.5 281.347656 L 79.132812 280.984375 L 79.765625 280.628906 L 80.394531 280.28125 L 81.027344 279.9375 L 81.660156 279.601562 L 82.292969 279.273438 L 82.925781 278.949219 L 83.554688 278.632812 L 84.1875 278.324219 L 84.820312 278.019531 L 85.453125 277.71875 L 86.082031 277.429688 L 86.714844 277.144531 L 87.347656 276.863281 L 87.980469 276.589844 L 88.613281 276.324219 L 89.242188 276.0625 L 89.875 275.804688 L 90.507812 275.554688 L 91.140625 275.3125 L 91.773438 275.074219 L 92.402344 274.839844 L 93.035156 274.613281 L 93.667969 274.390625 L 94.300781 274.175781 L 94.929688 273.964844 L 95.5625 273.757812 L 96.195312 273.558594 L 96.828125 273.363281 L 97.460938 273.175781 L 98.089844 272.992188 L 98.722656 272.8125 L 99.355469 272.636719 L 100.621094 272.300781 L 101.25 272.140625 L 102.515625 271.835938 L 103.148438 271.691406 L 103.777344 271.550781 L 104.410156 271.414062 L 105.042969 271.28125 L 105.675781 271.152344 L 106.308594 271.027344 L 106.9375 270.910156 L 107.570312 270.792969 L 108.835938 270.574219 L 109.46875 270.472656 L 110.097656 270.371094 L 111.363281 270.183594 L 111.996094 270.097656 L 112.625 270.011719 L 113.257812 269.929688 L 115.15625 269.707031 L 115.785156 269.640625 L 117.050781 269.515625 L 117.683594 269.457031 L 118.3125 269.402344 L 118.945312 269.347656 L 120.84375 269.207031 L 121.472656 269.167969 L 122.738281 269.089844 L 123.371094 269.054688 L 124.003906 269.023438 L 124.632812 268.992188 L 125.265625 268.964844 L 125.898438 268.941406 L 126.53125 268.914062 L 127.160156 268.894531 L 128.425781 268.855469 L 129.691406 268.824219 L 130.320312 268.808594 L 131.585938 268.785156 L 132.851562 268.769531 L 133.480469 268.761719 L 134.113281 268.753906 L 135.378906 268.746094 L 136.007812 268.742188 L 136.640625 268.738281 L 137.273438 268.738281 L 137.90625 268.734375 L 139.167969 268.734375 L 139.800781 268.730469 L 145.488281 268.730469 L 146.121094 268.726562 L 146.753906 268.726562 L 147.386719 268.722656 L 148.015625 268.71875 L 149.28125 268.710938 L 149.914062 268.703125 L 150.542969 268.695312 L 151.808594 268.679688 L 153.074219 268.65625 L 153.703125 268.640625 L 154.335938 268.628906 L 154.96875 268.609375 L 155.601562 268.59375 L 156.234375 268.574219 L 156.863281 268.550781 L 158.128906 268.503906 L 158.761719 268.472656 L 159.390625 268.445312 L 160.023438 268.414062 L 161.289062 268.34375 L 161.921875 268.304688 L 162.550781 268.261719 L 163.183594 268.21875 L 163.816406 268.171875 L 165.082031 268.070312 L 165.710938 268.015625 L 166.976562 267.898438 L 167.609375 267.832031 L 168.238281 267.765625 L 168.871094 267.695312 L 169.503906 267.621094 L 170.769531 267.464844 L 171.398438 267.378906 L 172.03125 267.292969 L 173.296875 267.105469 L 173.929688 267.007812 L 174.558594 266.90625 L 175.824219 266.6875 L 176.457031 266.574219 L 177.085938 266.453125 L 177.71875 266.332031 L 178.351562 266.203125 L 179.617188 265.9375 L 180.246094 265.796875 L 181.511719 265.5 L 182.144531 265.347656 L 182.773438 265.1875 L 183.40625 265.023438 L 184.039062 264.855469 L 184.671875 264.679688 L 185.304688 264.5 L 185.933594 264.316406 L 186.566406 264.128906 L 187.199219 263.933594 L 187.832031 263.734375 L 188.464844 263.53125 L 189.09375 263.320312 L 189.726562 263.105469 L 190.359375 262.886719 L 190.992188 262.660156 L 191.621094 262.425781 L 192.253906 262.191406 L 193.519531 261.699219 L 194.152344 261.441406 L 194.78125 261.183594 L 196.046875 260.644531 L 197.3125 260.082031 L 197.941406 259.789062 L 198.574219 259.492188 L 199.207031 259.191406 L 199.839844 258.878906 L 200.46875 258.566406 L 201.101562 258.242188 L 201.734375 257.914062 L 202.367188 257.578125 L 203 257.238281 L 203.628906 256.890625 L 204.261719 256.535156 L 204.894531 256.175781 L 205.527344 255.808594 L 206.160156 255.433594 L 206.789062 255.050781 L 207.421875 254.664062 L 208.054688 254.269531 L 208.6875 253.867188 L 209.316406 253.457031 L 209.949219 253.042969 L 210.582031 252.621094 L 211.214844 252.191406 L 211.847656 251.753906 L 212.476562 251.308594 L 213.109375 250.859375 L 213.742188 250.398438 L 214.375 249.933594 L 215.003906 249.460938 L 215.636719 248.980469 L 216.269531 248.496094 L 216.902344 248 L 217.535156 247.5 L 218.164062 246.988281 L 218.796875 246.472656 L 219.429688 245.949219 L 220.0625 245.417969 L 220.695312 244.878906 L 221.324219 244.332031 L 221.957031 243.777344 L 222.589844 243.214844 L 223.222656 242.644531 L 223.851562 242.066406 L 224.484375 241.484375 L 225.117188 240.890625 L 225.75 240.289062 L 226.382812 239.683594 L 227.011719 239.066406 L 227.644531 238.445312 L 228.277344 237.8125 L 228.910156 237.175781 L 229.542969 236.527344 L 230.171875 235.871094 L 230.804688 235.210938 L 231.4375 234.539062 L 232.070312 233.863281 L 232.699219 233.175781 L 233.332031 232.484375 L 233.964844 231.78125 L 234.597656 231.070312 L 235.230469 230.355469 L 235.859375 229.628906 L 236.492188 228.894531 L 237.125 228.15625 L 237.757812 227.40625 L 238.386719 226.648438 L 239.019531 225.882812 L 239.652344 225.113281 L 240.285156 224.332031 L 240.917969 223.542969 L 241.546875 222.746094 L 242.179688 221.941406 L 242.8125 221.128906 L 243.445312 220.308594 L 244.078125 219.480469 L 244.707031 218.644531 L 245.339844 217.800781 L 245.972656 216.945312 L 246.605469 216.085938 L 247.234375 215.21875 L 247.867188 214.34375 L 248.5 213.460938 L 249.132812 212.566406 L 249.765625 211.667969 L 250.394531 210.761719 L 251.027344 209.847656 L 251.660156 208.921875 L 252.292969 207.992188 L 252.925781 207.054688 L 253.554688 206.105469 L 254.1875 205.152344 L 254.820312 204.191406 L 255.453125 203.21875 L 256.082031 202.242188 L 256.714844 201.257812 L 257.347656 200.265625 L 257.980469 199.265625 L 258.613281 198.257812 L 259.242188 197.238281 L 259.875 196.214844 L 260.507812 195.1875 L 261.140625 194.148438 L 261.773438 193.101562 L 262.402344 192.046875 L 263.035156 190.984375 L 263.667969 189.917969 L 264.300781 188.839844 L 264.929688 187.757812 L 265.5625 186.667969 L 266.195312 185.570312 L 267.460938 183.351562 L 268.089844 182.230469 L 268.722656 181.101562 L 269.355469 179.96875 L 269.988281 178.828125 L 270.617188 177.675781 L 271.25 176.523438 L 271.882812 175.359375 L 272.515625 174.1875 L 273.148438 173.011719 L 273.777344 171.828125 L 274.410156 170.636719 L 275.042969 169.441406 L 275.675781 168.234375 L 276.308594 167.023438 L 276.9375 165.804688 L 277.570312 164.582031 L 278.203125 163.351562 L 278.835938 162.113281 L 279.464844 160.867188 L 280.097656 159.617188 L 280.730469 158.359375 L 281.363281 157.097656 L 281.996094 155.824219 L 282.625 154.550781 L 283.257812 153.265625 L 283.890625 151.976562 L 284.523438 150.683594 L 285.15625 149.382812 L 285.785156 148.074219 L 286.417969 146.761719 L 287.050781 145.441406 L 287.683594 144.117188 L 288.3125 142.785156 L 288.945312 141.449219 L 289.578125 140.105469 L 290.210938 138.757812 L 290.84375 137.402344 L 291.472656 136.042969 L 292.105469 134.675781 L 292.738281 133.304688 L 293.371094 131.929688 L 294.003906 130.546875 L 294.632812 129.160156 L 295.265625 127.769531 L 295.898438 126.371094 L 296.53125 124.96875 L 297.160156 123.5625 L 297.792969 122.148438 L 298.425781 120.730469 L 299.058594 119.308594 L 299.691406 117.882812 L 300.320312 116.449219 L 300.953125 115.015625 L 301.585938 113.574219 L 302.21875 112.125 L 302.847656 110.675781 L 303.480469 109.222656 L 304.746094 106.300781 L 305.378906 104.832031 L 306.007812 103.359375 L 306.640625 101.882812 L 307.90625 98.921875 L 308.539062 97.433594 L 309.167969 95.941406 L 309.800781 94.445312 L 311.066406 91.445312 L 311.695312 89.9375 L 312.328125 88.429688 L 313.59375 85.398438 L 314.226562 83.878906 L 314.855469 82.355469 L 316.121094 79.300781 L 316.753906 77.769531 L 317.386719 76.234375 L 318.015625 74.695312 L 318.648438 73.15625 L 319.28125 71.613281 L 319.914062 70.066406 L 320.542969 68.519531 L 321.175781 66.96875 L 323.074219 62.304688 L 323.703125 60.742188 L 324.335938 59.183594 L 326.234375 54.484375 L 326.863281 52.917969 L 327.496094 51.34375 L 328.128906 49.773438 L 328.761719 48.199219 L 329.390625 46.625 L 331.289062 41.890625 L 331.921875 40.308594 L 332.550781 38.726562 L 334.449219 33.980469 L 335.078125 32.394531 L 337.609375 26.050781 L 338.238281 24.460938 L 338.871094 22.875 L 339.503906 21.285156 L 340.136719 19.699219 "/>
<g clip-path="url(#clip21)" clip-rule="nonzero">
<path style="fill:none;stroke-width:0.96998;stroke-linecap:round;stroke-linejoin:round;stroke:rgb(20%,20%,20%);stroke-opacity:1;stroke-miterlimit:10;" d="M 27.59375 328.765625 L 355.015625 328.765625 L 355.015625 4.980469 L 27.59375 4.980469 Z M 27.59375 328.765625 "/>
</g>
<g style="fill:rgb(30.196078%,30.196078%,30.196078%);fill-opacity:1;">
  <use xlink:href="#glyph0-1" x="18.113281" y="282.172852"/>
</g>
<g style="fill:rgb(30.196078%,30.196078%,30.196078%);fill-opacity:1;">
  <use xlink:href="#glyph0-2" x="18.113281" y="202.782227"/>
</g>
<g style="fill:rgb(30.196078%,30.196078%,30.196078%);fill-opacity:1;">
  <use xlink:href="#glyph0-3" x="18.113281" y="123.391602"/>
</g>
<g style="fill:rgb(30.196078%,30.196078%,30.196078%);fill-opacity:1;">
  <use xlink:href="#glyph0-4" x="18.113281" y="44.000977"/>
</g>
<path style="fill:none;stroke-width:0.96998;stroke-linecap:butt;stroke-linejoin:round;stroke:rgb(20%,20%,20%);stroke-opacity:1;stroke-miterlimit:10;" d="M 25.105469 279.972656 L 27.59375 279.972656 "/>
<path style="fill:none;stroke-width:0.96998;stroke-linecap:butt;stroke-linejoin:round;stroke:rgb(20%,20%,20%);stroke-opacity:1;stroke-miterlimit:10;" d="M 25.105469 200.582031 L 27.59375 200.582031 "/>
<path style="fill:none;stroke-width:0.96998;stroke-linecap:butt;stroke-linejoin:round;stroke:rgb(20%,20%,20%);stroke-opacity:1;stroke-miterlimit:10;" d="M 25.105469 121.191406 L 27.59375 121.191406 "/>
<path style="fill:none;stroke-width:0.96998;stroke-linecap:butt;stroke-linejoin:round;stroke:rgb(20%,20%,20%);stroke-opacity:1;stroke-miterlimit:10;" d="M 25.105469 41.800781 L 27.59375 41.800781 "/>
<path style="fill:none;stroke-width:0.96998;stroke-linecap:butt;stroke-linejoin:round;stroke:rgb(20%,20%,20%);stroke-opacity:1;stroke-miterlimit:10;" d="M 69.601562 331.253906 L 69.601562 328.765625 "/>
<path style="fill:none;stroke-width:0.96998;stroke-linecap:butt;stroke-linejoin:round;stroke:rgb(20%,20%,20%);stroke-opacity:1;stroke-miterlimit:10;" d="M 132.800781 331.253906 L 132.800781 328.765625 "/>
<path style="fill:none;stroke-width:0.96998;stroke-linecap:butt;stroke-linejoin:round;stroke:rgb(20%,20%,20%);stroke-opacity:1;stroke-miterlimit:10;" d="M 195.996094 331.253906 L 195.996094 328.765625 "/>
<path style="fill:none;stroke-width:0.96998;stroke-linecap:butt;stroke-linejoin:round;stroke:rgb(20%,20%,20%);stroke-opacity:1;stroke-miterlimit:10;" d="M 259.191406 331.253906 L 259.191406 328.765625 "/>
<path style="fill:none;stroke-width:0.96998;stroke-linecap:butt;stroke-linejoin:round;stroke:rgb(20%,20%,20%);stroke-opacity:1;stroke-miterlimit:10;" d="M 322.390625 331.253906 L 322.390625 328.765625 "/>
<g style="fill:rgb(30.196078%,30.196078%,30.196078%);fill-opacity:1;">
  <use xlink:href="#glyph0-5" x="67.101562" y="338.446289"/>
</g>
<g style="fill:rgb(30.196078%,30.196078%,30.196078%);fill-opacity:1;">
  <use xlink:href="#glyph0-1" x="130.300781" y="338.446289"/>
</g>
<g style="fill:rgb(30.196078%,30.196078%,30.196078%);fill-opacity:1;">
  <use xlink:href="#glyph0-2" x="193.496094" y="338.446289"/>
</g>
<g style="fill:rgb(30.196078%,30.196078%,30.196078%);fill-opacity:1;">
  <use xlink:href="#glyph0-3" x="256.691406" y="338.446289"/>
</g>
<g style="fill:rgb(30.196078%,30.196078%,30.196078%);fill-opacity:1;">
  <use xlink:href="#glyph0-4" x="319.890625" y="338.446289"/>
</g>
<g style="fill:rgb(0%,0%,0%);fill-opacity:1;">
  <use xlink:href="#glyph1-1" x="188.308594" y="351.628906"/>
</g>
<g style="fill:rgb(0%,0%,0%);fill-opacity:1;">
  <use xlink:href="#glyph2-1" x="12.230469" y="169.375"/>
</g>
</g>
</svg>
